<svg xmlns:xlink="http://www.w3.org/1999/xlink" xmlns="http://www.w3.org/2000/svg" width="92" height="21" viewBox="0 0 92 21" fill="none">
<path d="M31.814 11.87L33.508 7.208H33.536L35.202 11.87H31.814ZM32.808 6.004L28.916 16H30.274L31.394 12.99H35.622L36.714 16H38.184L34.278 6.004H32.808ZM39.0441 6.004V16H40.2341V6.004H39.0441ZM42.1476 6.004V16H43.3376V6.004H42.1476ZM51.5416 7.124V16H52.8716V7.124H56.2036V6.004H48.2096V7.124H51.5416ZM56.4261 12.388C56.4261 11.9493 56.4821 11.562 56.5941 11.226C56.7154 10.8807 56.8788 10.5913 57.0841 10.358C57.2894 10.1247 57.5274 9.94733 57.7981 9.826C58.0781 9.70467 58.3721 9.644 58.6801 9.644C58.9881 9.644 59.2774 9.70467 59.5481 9.826C59.8281 9.94733 60.0708 10.1247 60.2761 10.358C60.4814 10.5913 60.6401 10.8807 60.7521 11.226C60.8734 11.562 60.9341 11.9493 60.9341 12.388C60.9341 12.8267 60.8734 13.2187 60.7521 13.564C60.6401 13.9 60.4814 14.1847 60.2761 14.418C60.0708 14.642 59.8281 14.8147 59.5481 14.936C59.2774 15.0573 58.9881 15.118 58.6801 15.118C58.3721 15.118 58.0781 15.0573 57.7981 14.936C57.5274 14.8147 57.2894 14.642 57.0841 14.418C56.8788 14.1847 56.7154 13.9 56.5941 13.564C56.4821 13.2187 56.4261 12.8267 56.4261 12.388ZM55.1661 12.388C55.1661 12.92 55.2408 13.4147 55.3901 13.872C55.5394 14.3293 55.7634 14.7307 56.0621 15.076C56.3608 15.412 56.7294 15.678 57.1681 15.874C57.6068 16.0607 58.1108 16.154 58.6801 16.154C59.2588 16.154 59.7628 16.0607 60.1921 15.874C60.6308 15.678 60.9994 15.412 61.2981 15.076C61.5968 14.7307 61.8208 14.3293 61.9701 13.872C62.1194 13.4147 62.1941 12.92 62.1941 12.388C62.1941 11.856 62.1194 11.3613 61.9701 10.904C61.8208 10.4373 61.5968 10.036 61.2981 9.7C60.9994 9.35467 60.6308 9.084 60.1921 8.888C59.7628 8.692 59.2588 8.594 58.6801 8.594C58.1108 8.594 57.6068 8.692 57.1681 8.888C56.7294 9.084 56.3608 9.35467 56.0621 9.7C55.7634 10.036 55.5394 10.4373 55.3901 10.904C55.2408 11.3613 55.1661 11.856 55.1661 12.388ZM63.6672 6.004V16H64.8572V13.256L65.9772 12.22L68.4552 16H69.9672L66.8872 11.394L69.7572 8.762H68.1612L64.8572 11.926V6.004H63.6672ZM75.8829 11.688H71.7249C71.7436 11.408 71.8043 11.1467 71.9069 10.904C72.0096 10.652 72.1496 10.4327 72.3269 10.246C72.5043 10.0593 72.7143 9.91467 72.9569 9.812C73.2089 9.7 73.4889 9.644 73.7969 9.644C74.0956 9.644 74.3663 9.7 74.6089 9.812C74.8609 9.91467 75.0756 10.0593 75.2529 10.246C75.4396 10.4233 75.5843 10.638 75.6869 10.89C75.7989 11.142 75.8643 11.408 75.8829 11.688ZM77.0309 13.704H75.8549C75.7523 14.18 75.5376 14.5347 75.2109 14.768C74.8936 15.0013 74.4829 15.118 73.9789 15.118C73.5869 15.118 73.2463 15.0527 72.9569 14.922C72.6676 14.7913 72.4296 14.6187 72.2429 14.404C72.0563 14.18 71.9209 13.928 71.8369 13.648C71.7529 13.3587 71.7156 13.0553 71.7249 12.738H77.1429C77.1616 12.2993 77.1196 11.8373 77.0169 11.352C76.9236 10.8667 76.7463 10.4187 76.4849 10.008C76.2329 9.59733 75.8923 9.26133 75.4629 9C75.0429 8.72933 74.5109 8.594 73.8669 8.594C73.3723 8.594 72.9149 8.68733 72.4949 8.874C72.0843 9.06067 71.7249 9.322 71.4169 9.658C71.1183 9.994 70.8849 10.3907 70.7169 10.848C70.5489 11.3053 70.4649 11.8093 70.4649 12.36C70.4836 12.9107 70.5629 13.4193 70.7029 13.886C70.8523 14.3527 71.0716 14.754 71.3609 15.09C71.6503 15.426 72.0049 15.6873 72.4249 15.874C72.8543 16.0607 73.3583 16.154 73.9369 16.154C74.7583 16.154 75.4396 15.9487 75.9809 15.538C76.5223 15.1273 76.8723 14.516 77.0309 13.704ZM78.3765 8.762V16H79.5665V11.912C79.5665 11.5853 79.6085 11.2867 79.6925 11.016C79.7858 10.736 79.9211 10.4933 80.0985 10.288C80.2758 10.0827 80.4951 9.924 80.7565 9.812C81.0271 9.7 81.3445 9.644 81.7085 9.644C82.1658 9.644 82.5251 9.77467 82.7865 10.036C83.0478 10.2973 83.1785 10.652 83.1785 11.1V16H84.3685V11.24C84.3685 10.848 84.3265 10.4933 84.2425 10.176C84.1678 9.84933 84.0325 9.56933 83.8365 9.336C83.6405 9.10267 83.3838 8.92067 83.0665 8.79C82.7491 8.65933 82.3525 8.594 81.8765 8.594C80.8031 8.594 80.0191 9.03267 79.5245 9.91H79.4965V8.762H78.3765ZM86.8838 13.718H85.6938C85.7124 14.166 85.8058 14.5487 85.9738 14.866C86.1418 15.174 86.3658 15.426 86.6458 15.622C86.9258 15.8087 87.2478 15.944 87.6118 16.028C87.9758 16.112 88.3584 16.154 88.7598 16.154C89.1238 16.154 89.4878 16.1167 89.8518 16.042C90.2251 15.9767 90.5564 15.8553 90.8458 15.678C91.1444 15.5007 91.3824 15.2673 91.5598 14.978C91.7464 14.6887 91.8398 14.3247 91.8398 13.886C91.8398 13.5407 91.7698 13.2513 91.6298 13.018C91.4991 12.7847 91.3218 12.5933 91.0978 12.444C90.8831 12.2853 90.6311 12.1593 90.3418 12.066C90.0618 11.9727 89.7724 11.8933 89.4738 11.828C89.1938 11.7627 88.9138 11.702 88.6338 11.646C88.3538 11.5807 88.1018 11.506 87.8778 11.422C87.6538 11.3287 87.4671 11.2167 87.3178 11.086C87.1778 10.946 87.1078 10.7733 87.1078 10.568C87.1078 10.3813 87.1544 10.232 87.2478 10.12C87.3411 9.99867 87.4624 9.90533 87.6118 9.84C87.7611 9.76533 87.9244 9.714 88.1018 9.686C88.2884 9.658 88.4704 9.644 88.6478 9.644C88.8438 9.644 89.0351 9.66733 89.2218 9.714C89.4178 9.75133 89.5951 9.81667 89.7538 9.91C89.9124 10.0033 90.0431 10.1293 90.1458 10.288C90.2484 10.4373 90.3091 10.6287 90.3278 10.862H91.5178C91.4898 10.4233 91.3964 10.0593 91.2378 9.77C91.0791 9.47133 90.8644 9.238 90.5938 9.07C90.3324 8.89267 90.0291 8.77133 89.6838 8.706C89.3384 8.63133 88.9604 8.594 88.5498 8.594C88.2324 8.594 87.9104 8.636 87.5838 8.72C87.2664 8.79467 86.9771 8.916 86.7158 9.084C86.4638 9.24267 86.2538 9.45267 86.0858 9.714C85.9271 9.97533 85.8478 10.288 85.8478 10.652C85.8478 11.1187 85.9644 11.4827 86.1978 11.744C86.4311 12.0053 86.7204 12.2107 87.0658 12.36C87.4204 12.5 87.8031 12.612 88.2138 12.696C88.6244 12.7707 89.0024 12.8593 89.3478 12.962C89.7024 13.0553 89.9964 13.1813 90.2298 13.34C90.4631 13.4987 90.5798 13.732 90.5798 14.04C90.5798 14.264 90.5238 14.4507 90.4118 14.6C90.2998 14.74 90.1551 14.8473 89.9778 14.922C89.8098 14.9967 89.6231 15.048 89.4178 15.076C89.2124 15.104 89.0164 15.118 88.8298 15.118C88.5871 15.118 88.3491 15.0947 88.1158 15.048C87.8918 15.0013 87.6864 14.9267 87.4998 14.824C87.3224 14.712 87.1778 14.5673 87.0658 14.39C86.9538 14.2033 86.8931 13.9793 86.8838 13.718Z" fill="#1F191B"/>
<path opacity="0.3" fill-rule="evenodd" clip-rule="evenodd" d="M20 10.5C20 15.7467 15.7467 20 10.5 20C5.25329 20 1 15.7467 1 10.5C1 5.25329 5.25329 1 10.5 1C15.7467 1 20 5.25329 20 10.5ZM21 10.5C21 16.299 16.299 21 10.5 21C4.70101 21 0 16.299 0 10.5C0 4.70101 4.70101 0 10.5 0C16.299 0 21 4.70101 21 10.5ZM9.07837 15.7498V13.5938H11.2764V15.7498H9.07837ZM8.88237 8.97383H6.82438C6.83371 8.46983 6.91771 8.00783 7.07638 7.58783C7.24438 7.16783 7.47304 6.80383 7.76238 6.49583C8.06104 6.18783 8.41571 5.94983 8.82638 5.78183C9.24638 5.6045 9.71304 5.51583 10.2264 5.51583C10.889 5.51583 11.4397 5.60917 11.8784 5.79583C12.3264 5.97317 12.6857 6.19717 12.9564 6.46783C13.227 6.7385 13.4184 7.0325 13.5304 7.34983C13.6517 7.65783 13.7124 7.94717 13.7124 8.21783C13.7124 8.66583 13.6517 9.0345 13.5304 9.32383C13.4184 9.61317 13.2737 9.8605 13.0964 10.0658C12.9284 10.2712 12.737 10.4485 12.5224 10.5978C12.317 10.7378 12.121 10.8825 11.9344 11.0318C11.7477 11.1718 11.5797 11.3352 11.4304 11.5218C11.2904 11.7085 11.2017 11.9418 11.1644 12.2218V12.7538H9.27437V12.1238C9.30237 11.7225 9.37704 11.3865 9.49837 11.1158C9.62904 10.8452 9.77838 10.6165 9.94638 10.4298C10.1144 10.2338 10.2917 10.0658 10.4784 9.92583C10.665 9.78583 10.8377 9.64583 10.9964 9.50583C11.155 9.36583 11.281 9.21183 11.3744 9.04383C11.477 8.87583 11.5237 8.66583 11.5144 8.41383C11.5144 7.9845 11.407 7.66717 11.1924 7.46183C10.987 7.2565 10.6977 7.15383 10.3244 7.15383C10.0724 7.15383 9.85304 7.20517 9.66638 7.30783C9.48904 7.40117 9.33971 7.53183 9.21838 7.69983C9.10638 7.8585 9.02238 8.04983 8.96638 8.27383C8.91038 8.4885 8.88237 8.72183 8.88237 8.97383Z" fill="black"/>
</svg>