<svg xmlns:xlink="http://www.w3.org/1999/xlink" xmlns="http://www.w3.org/2000/svg" width="123" height="21" viewBox="0 0 123 21" fill="none">
<path d="M17.9884 12.5552C17.6221 12.7791 17.1948 12.8198 16.8692 12.6366C16.4622 12.3924 16.218 11.843 16.218 11.0901V8.7907C16.218 7.69186 15.7907 6.89825 15.0581 6.69477C13.8169 6.32849 12.8808 7.85465 12.5349 8.42442L10.3372 11.9448V7.61046C10.3169 6.61337 9.99128 6.02326 9.38081 5.84012C8.97383 5.71803 8.36337 5.77907 7.77325 6.67442L2.86918 14.5291C2.21802 13.2878 1.87209 11.9041 1.87209 10.5C1.87209 5.75872 5.67732 1.91279 10.3372 1.91279C14.9971 1.91279 18.8023 5.75872 18.8023 10.5V10.5204V10.5407C18.843 11.4564 18.5581 12.189 17.9884 12.5552ZM20.6744 10.5V10.4797V10.4593C20.6541 4.70058 16.0145 0 10.3372 0C4.63953 0 0 4.70058 0 10.5C0 16.2791 4.63953 21 10.3372 21C12.9622 21 15.4448 20.0029 17.3576 18.1919C17.7442 17.8256 17.7645 17.2355 17.3983 16.8488C17.0523 16.4622 16.4622 16.4419 16.0756 16.7878C16.0756 16.7878 16.0756 16.7878 16.0552 16.8081C14.5087 18.2733 12.4331 19.1076 10.2965 19.1076C7.7936 19.1076 5.55523 18.0087 4.00872 16.2587L8.42442 9.17733V12.4535C8.42442 14.0203 9.03488 14.5291 9.5436 14.6715C10.0523 14.814 10.8256 14.7122 11.6599 13.3895L14.0814 9.46221C14.1628 9.34012 14.2238 9.21802 14.3052 9.13663V11.1308C14.3052 12.5959 14.8953 13.7762 15.9128 14.3459C16.8285 14.875 17.9884 14.814 18.9448 14.2238C20.125 13.4506 20.7558 12.1076 20.6744 10.5ZM35.0814 6.9186C35.3256 7.06105 35.5494 7.40697 35.5494 7.71221C35.5494 8.20058 35.1424 8.60756 34.6744 8.60756C34.5523 8.60756 34.4506 8.56686 34.3488 8.54651C33.7994 8.13953 33.1076 7.875 32.375 7.875C30.6453 7.875 29.4651 9.27907 29.4651 11.0291C29.4651 12.7791 30.6657 14.1628 32.375 14.1628C33.2296 14.1628 34.0029 13.8169 34.5727 13.2674C34.7151 13.1657 34.8983 13.1046 35.0814 13.1046C35.5494 13.1046 35.9157 13.4709 35.9157 13.939C35.9157 14.2442 35.7325 14.5087 35.5087 14.6512C34.6744 15.3634 33.5552 15.8314 32.3953 15.8314C29.75 15.8314 27.593 13.6541 27.593 10.968C27.593 8.28197 29.75 6.10465 32.3953 6.10465C33.3721 6.0843 34.3081 6.38953 35.0814 6.9186ZM39.9244 8.95349C41.7355 8.95349 43.2413 10.4797 43.2413 12.3721C43.2413 14.2442 41.7151 15.8517 39.9244 15.8517C38.032 15.8517 36.4651 14.2645 36.4651 12.3721C36.4651 10.4797 38.032 8.95349 39.9244 8.95349ZM39.9041 14.1628C40.6977 14.1628 41.3692 13.4099 41.3692 12.3924C41.3692 11.375 40.6977 10.7238 39.9041 10.7238C39.0494 10.7238 38.3372 11.3546 38.3372 12.3924C38.3372 13.3895 39.0494 14.1628 39.9041 14.1628ZM44.3808 14.7936V9.99128C44.3808 9.46221 44.7878 9.03488 45.3168 9.03488C45.8256 9.03488 46.2529 9.46221 46.2529 9.99128V14.7936C46.2529 15.3227 45.8256 15.75 45.3168 15.75C44.8081 15.75 44.3808 15.3023 44.3808 14.7936ZM44.2384 7.22384C44.2384 6.59302 44.7267 6.10465 45.3168 6.10465C45.9273 6.10465 46.4157 6.61337 46.4157 7.22384C46.4157 7.8343 45.9273 8.32267 45.3168 8.32267C44.7064 8.30232 44.2384 7.81395 44.2384 7.22384ZM49.8343 12.189V14.7936C49.8343 15.3227 49.407 15.75 48.8982 15.75C48.3895 15.75 47.9622 15.3227 47.9622 14.7936V9.76744C47.9622 9.36046 48.2878 9.03488 48.6948 9.03488C49.1017 9.03488 49.407 9.38081 49.407 9.76744C50.1599 9.05523 50.8314 8.95349 51.4622 8.95349C53.3343 8.95349 54.1686 10.3576 54.1686 11.9651V14.7936C54.1686 15.3227 53.7413 15.75 53.2325 15.75C52.7238 15.75 52.2965 15.3227 52.2965 14.7936V12.189C52.2965 11.375 52.1948 10.6831 51.0145 10.6831C50.1802 10.6831 49.8343 11.375 49.8343 12.189ZM60.2325 13.186C60.0087 13.186 59.8663 13.0843 59.7442 12.9419L57.5668 10.5814V14.7936C57.5668 15.3227 57.1395 15.75 56.6308 15.75C56.1221 15.75 55.6947 15.3227 55.6947 14.7936V6.45058C55.7558 6.30814 55.8982 6.20639 56.0407 6.20639C56.2035 6.20639 56.3459 6.34884 56.4477 6.45058L59.9273 10.3576C60.0291 10.4796 60.1511 10.5407 60.2325 10.5407C60.2936 10.5407 60.436 10.4796 60.5378 10.3576L64.0174 6.45058C64.1192 6.34884 64.2413 6.20639 64.4244 6.20639C64.5872 6.20639 64.7296 6.30814 64.7703 6.45058V14.7936C64.7703 15.3227 64.3633 15.75 63.8343 15.75C63.3256 15.75 62.8982 15.3227 62.8982 14.7936V10.5814L60.7209 12.9419C60.5581 13.0843 60.4157 13.186 60.2325 13.186ZM69.2267 14.1628C70.061 14.1628 70.7732 13.4099 70.7732 12.3924C70.7732 11.375 70.0407 10.7035 69.2267 10.7035C68.4128 10.7035 67.7413 11.3953 67.7413 12.3924C67.7413 13.3692 68.3924 14.1628 69.2267 14.1628ZM71.2209 15.0174L71.1802 14.7936C70.8139 15.5058 69.654 15.8314 68.9215 15.8314C67.1715 15.8314 65.8692 14.2442 65.8692 12.3517C65.8692 10.4797 67.1918 8.93314 69.0232 8.93314C69.3285 8.93314 70.3866 9.01453 71.2006 9.97093L71.2413 9.74709C71.2413 9.34011 71.5465 9.01454 71.9535 9.01454C72.3604 9.01454 72.686 9.36046 72.686 9.74709V14.9971C72.686 15.4041 72.3604 15.7297 71.9535 15.7297C71.5261 15.75 71.2209 15.4041 71.2209 15.0174ZM77.8343 10.6831H77.6308C76.4506 10.7442 76.2267 11.4157 76.2267 12.189V14.7936C76.2267 15.3227 75.7994 15.75 75.2907 15.75C74.782 15.75 74.3546 15.3227 74.3546 14.7936V9.76744C74.3546 9.36046 74.6802 9.03488 75.0872 9.03488C75.4942 9.03488 75.7994 9.38081 75.7994 9.76744C76.4913 9.11628 77.061 8.97384 77.6308 8.95349H77.8139C78.2616 8.95349 78.6686 9.34012 78.6686 9.82849C78.6889 10.2762 78.282 10.6831 77.8343 10.6831ZM85.0581 14.3459C85.1395 14.4884 85.2006 14.6308 85.2006 14.7936C85.2006 15.282 84.7529 15.7297 84.2645 15.7297C83.9389 15.7297 83.654 15.4855 83.4302 15.2006L81.2732 12.6977V14.7733C81.2732 15.3023 80.8459 15.7297 80.3372 15.7297C79.8285 15.7297 79.4011 15.3023 79.4011 14.7733V7.14244C79.4011 6.61337 79.8081 6.18604 80.3372 6.18604C80.8663 6.18604 81.2732 6.61337 81.2732 7.14244V11.9041L83.4302 9.52326C83.654 9.27907 83.9186 9.01454 84.2442 9.01454C84.7122 9.01454 85.1395 9.44186 85.1395 9.93023C85.1395 10.0727 85.0988 10.2355 85.0174 10.3576L83.3081 12.2297L85.0581 14.3459ZM88.7209 10.7035C88.2122 10.7035 87.3779 10.968 87.3779 11.7616H90.0843C90.0639 10.968 89.2093 10.7035 88.7209 10.7035ZM91.1628 12.9622H87.3779C87.3779 14.0814 88.4564 14.2645 88.9244 14.2645C89.2703 14.2645 89.7587 14.2035 90.1453 14.0203C90.2674 13.939 90.4506 13.8779 90.6337 13.8779C91.0407 13.8779 91.3866 14.2238 91.3866 14.6512C91.3866 14.936 91.2035 15.1802 90.9796 15.3227C90.4099 15.75 89.657 15.8517 88.9447 15.8517C87.0523 15.8517 85.4854 14.8343 85.4854 12.4535C85.4854 10.5814 86.4418 8.95349 88.6802 8.95349C90.4913 8.95349 91.8546 10.1337 91.8953 12.2297C91.8953 12.6163 91.5697 12.9622 91.1628 12.9622ZM96.3721 15.8314H95.8633C94.4389 15.8314 93.6046 15.2006 93.6046 12.9826V10.6831H93.1162C92.6686 10.6831 92.282 10.2762 92.282 9.82849C92.282 9.34012 92.6889 8.95349 93.1162 8.95349H93.6046V7.18314C93.6046 6.65407 94.0116 6.22674 94.5407 6.22674C95.0494 6.22674 95.4767 6.65407 95.4767 7.18314V8.95349H96.25C96.6976 8.95349 97.0843 9.34012 97.0843 9.82849C97.0843 10.2762 96.6773 10.6831 96.25 10.6831H95.4767V12.6163C95.4767 13.8983 95.5378 14.1628 96.1075 14.1628H96.3721C96.8197 14.1628 97.2064 14.5291 97.2064 14.9971C97.2064 15.4448 96.8197 15.8314 96.3721 15.8314ZM105.427 6.9186C105.671 7.06105 105.895 7.40697 105.895 7.71221C105.895 8.20058 105.488 8.60756 105.02 8.60756C104.898 8.60756 104.796 8.56686 104.695 8.54651C104.145 8.13953 103.453 7.875 102.721 7.875C100.991 7.875 99.811 9.27907 99.811 11.0291C99.811 12.7791 101.012 14.1628 102.721 14.1628C103.576 14.1628 104.349 13.8169 104.919 13.2674C105.061 13.1657 105.244 13.1046 105.427 13.1046C105.895 13.1046 106.262 13.4709 106.262 13.939C106.262 14.2442 106.078 14.5087 105.855 14.6512C105.02 15.3634 103.901 15.8314 102.741 15.8314C100.096 15.8314 97.9389 13.6541 97.9389 10.968C97.9389 8.28197 100.096 6.10465 102.741 6.10465C103.718 6.0843 104.674 6.38953 105.427 6.9186ZM110.169 14.1628C111.003 14.1628 111.715 13.4099 111.715 12.3924C111.715 11.375 110.983 10.7035 110.169 10.7035C109.334 10.7035 108.683 11.3953 108.683 12.3924C108.683 13.3692 109.355 14.1628 110.169 14.1628ZM112.163 15.0174L112.122 14.7936C111.756 15.5058 110.596 15.8314 109.863 15.8314C108.113 15.8314 106.811 14.2442 106.811 12.3517C106.811 10.4797 108.134 8.93314 109.965 8.93314C110.27 8.93314 111.328 9.01453 112.142 9.97093L112.183 9.74709C112.183 9.34011 112.488 9.01454 112.895 9.01454C113.302 9.01454 113.628 9.36046 113.628 9.74709V14.9971C113.628 15.4041 113.302 15.7297 112.895 15.7297C112.468 15.75 112.163 15.4041 112.163 15.0174ZM118.735 14.1628C119.57 14.1628 120.221 13.3692 120.221 12.3924C120.221 11.375 119.549 10.7035 118.735 10.7035C117.901 10.7035 117.189 11.375 117.189 12.3924C117.189 13.4099 117.901 14.1628 118.735 14.1628ZM117.189 15.282V17.6628C117.189 18.1919 116.762 18.6192 116.253 18.6192C115.744 18.6192 115.317 18.1919 115.317 17.6628V9.76744C115.317 9.36046 115.642 9.03488 116.049 9.03488C116.456 9.03488 116.762 9.38081 116.762 9.84883C117.453 9.13663 118.308 8.95349 118.959 8.95349C120.77 8.95349 122.113 10.4797 122.113 12.3721C122.113 14.2442 120.831 15.8517 119.061 15.8517C118.512 15.8314 117.698 15.6686 117.189 15.282Z" fill="#17181B"/>
</svg>