<svg xmlns:xlink="http://www.w3.org/1999/xlink" xmlns="http://www.w3.org/2000/svg" width="104" height="25" viewBox="0 0 104 25" fill="none">
<path d="M38.8246 10.5993C38.5238 9.42661 37.7653 8.56856 36.2822 8.56856C34.0937 8.56856 33.1784 10.4986 33.1784 12.4573C33.1784 14.416 34.0937 16.3472 36.2822 16.3472C37.8712 16.3472 38.742 15.1607 38.8839 13.6734H40.6286C40.4856 16.1183 38.7558 17.8048 36.2854 17.8048C33.225 17.8048 31.3945 15.3736 31.3945 12.4563C31.3945 9.5389 33.2187 7.10352 36.2791 7.10352C38.581 7.11729 40.3967 8.39059 40.6117 10.5929L38.8246 10.5993Z" fill="black"/>
<path d="M41.6785 13.858C41.6785 11.5985 43.0365 9.96924 45.4105 9.96924C47.7844 9.96924 49.1424 11.5985 49.1424 13.858C49.1424 16.1175 47.7844 17.7627 45.4105 17.7627C43.0365 17.7627 41.6785 16.1324 41.6785 13.858ZM47.5122 13.858C47.5122 12.5868 46.8691 11.2563 45.4105 11.2563C43.9518 11.2563 43.3088 12.5858 43.3088 13.858C43.3088 15.1303 43.9518 16.4756 45.4105 16.4756C46.8691 16.4756 47.5122 15.1451 47.5122 13.858Z" fill="black"/>
<path d="M50.5464 7.34766H52.1767V8.89215H50.5464V7.34766ZM50.5464 10.1655H52.1767V17.5585H50.5464V10.1655Z" fill="black"/>
<path d="M53.9531 10.1688H55.4976V11.2557L55.5262 11.2843C55.7604 10.8817 56.0966 10.548 56.5009 10.3168C56.9053 10.0856 57.3634 9.96515 57.8292 9.96756C59.4309 9.96756 60.4457 10.8256 60.4457 12.4835V17.5608H58.8154V12.9135C58.7868 11.7557 58.3292 11.2557 57.3716 11.2557C56.2847 11.2557 55.5834 12.1127 55.5834 13.1996V17.5618H53.9531V10.1688Z" fill="black"/>
<path d="M71.3075 17.558H70.1635L69.8923 16.3567C68.9389 17.4436 68.0618 17.8005 66.8203 17.8005C63.762 17.8027 61.9272 15.3662 61.9272 12.452C61.9272 9.53784 63.762 7.10352 66.8181 7.10352C69.0427 7.10352 70.922 8.28996 71.1931 10.5929H69.4484C69.2768 9.24864 68.1052 8.5622 66.8181 8.5622C64.6296 8.5622 63.7143 10.4923 63.7143 12.451C63.7143 14.4097 64.6296 16.3408 66.8181 16.3408C68.6476 16.3694 69.6486 15.2688 69.6783 13.5378H66.9611V12.1808H71.3044L71.3075 17.558Z" fill="black"/>
<path d="M74.2997 14.287C74.2997 15.4459 74.929 16.4756 76.287 16.4756C77.2309 16.4756 77.8029 16.0603 78.0879 15.2457H79.6334C79.2764 16.8612 77.9035 17.7627 76.287 17.7627C73.9713 17.7627 72.6694 16.1461 72.6694 13.8728C72.6694 11.7701 74.0466 9.96924 76.2446 9.96924C78.5752 9.96924 80.0052 12.0709 79.7341 14.287H74.2997ZM78.1038 13.215C78.0466 12.1853 77.3453 11.2563 76.2446 11.2563C75.1143 11.2563 74.3432 12.1133 74.2997 13.215H78.1038Z" fill="black"/>
<path d="M85.9581 12.643C85.8289 11.7415 85.1711 11.2563 84.2706 11.2563C83.4232 11.2563 82.2399 11.6991 82.2399 13.9438C82.2399 15.1737 82.7833 16.4756 84.1986 16.4756C85.1425 16.4756 85.8003 15.8464 85.9581 14.7881H87.5884C87.2876 16.7044 86.1054 17.7627 84.1986 17.7627C81.8819 17.7627 80.6096 16.1175 80.6096 13.9438C80.6096 11.7129 81.8257 9.96924 84.2558 9.96924C85.9719 9.96924 87.4338 10.8273 87.5884 12.643H85.9581Z" fill="black"/>
<path d="M88.9741 7.34766H90.6044V13.1538L93.5504 10.1655H95.5525L92.7209 12.8816L95.8237 17.5585H93.8322L91.5726 13.9684L90.6002 14.9123V17.5606H88.9741V7.34766Z" fill="black"/>
<path d="M96.2534 13.858C96.2534 11.5985 97.6115 9.96924 99.9854 9.96924C102.359 9.96924 103.718 11.5985 103.718 13.858C103.718 16.1175 102.359 17.7627 99.9854 17.7627C97.6115 17.7627 96.2534 16.1324 96.2534 13.858ZM102.088 13.858C102.088 12.5868 101.444 11.2563 99.9854 11.2563C98.5267 11.2563 97.8837 12.5858 97.8837 13.858C97.8837 15.1303 98.5267 16.4756 99.9854 16.4756C101.444 16.4756 102.088 15.1451 102.088 13.858Z" fill="black"/>
<path d="M24.9999 12.4449C25.0108 14.9171 24.2883 17.3371 22.9239 19.3988C21.5594 21.4604 19.6142 23.0712 17.3343 24.0273C15.0544 24.9835 12.5421 25.2421 10.1152 24.7704C7.68834 24.2987 5.45583 23.118 3.70001 21.3775C1.94418 19.637 0.743912 17.4149 0.250982 14.9923C-0.241949 12.5696 -0.00540052 10.0552 0.930713 7.76698C1.86683 5.47876 3.46046 3.51953 5.51008 2.13704C7.55971 0.754545 9.97326 0.010892 12.4455 0.000118844C15.7606 -0.0143268 18.9456 1.28868 21.3 3.6225C23.6544 5.95632 24.9853 9.1298 24.9999 12.4449Z" fill="black"/>
<path d="M24.0226 12.4191C24.033 14.7056 23.3651 16.9439 22.1034 18.8508C20.8417 20.7577 19.0429 22.2476 16.9344 23.1321C14.8259 24.0167 12.5024 24.2561 10.2579 23.8202C8.0133 23.3842 5.94841 22.2925 4.32433 20.683C2.70025 19.0734 1.58993 17.0185 1.13377 14.7779C0.677607 12.5374 0.896101 10.2119 1.76162 8.0955C2.62713 5.97912 4.1008 4.16694 5.99625 2.8881C7.89171 1.60927 10.1238 0.921236 12.4103 0.911001C15.4762 0.897517 18.4219 2.10233 20.5995 4.26045C22.7772 6.41858 24.0085 9.35329 24.0226 12.4191Z" fill="#F5F5F5"/>
<path d="M12.685 1.64153C13.4199 1.51109 14.172 1.51109 14.9069 1.64153C15.6489 1.75902 16.3662 1.99933 17.0292 2.35258C17.6886 2.7149 18.2584 3.20675 18.8254 3.6678C19.3924 4.12885 19.9567 4.60077 20.4939 5.11707C21.0422 5.62533 21.5207 6.20405 21.9169 6.83809C22.3248 7.46711 22.6591 8.14091 22.9132 8.84624C23.396 10.2647 23.5636 11.7928 23.3227 13.2502H23.2511C23.0093 11.8055 22.6814 10.4287 22.1642 9.11889C21.9214 8.45933 21.6358 7.81635 21.3091 7.19407C20.9682 6.57169 20.5927 5.96898 20.1841 5.38881C19.7686 4.80229 19.2594 4.28817 18.6768 3.86708C18.0899 3.4486 17.4151 3.17776 16.762 2.92052C16.1089 2.66327 15.4613 2.39697 14.7801 2.20131C14.0989 2.00566 13.4069 1.85892 12.6841 1.71671L12.685 1.64153Z" fill="white"/>
<path d="M18.3641 8.36969C17.5253 8.12694 16.6558 7.78273 15.7753 7.43491C15.7246 7.21389 15.5289 6.93853 15.1331 6.60248C14.5579 6.10339 13.4773 6.11607 12.5434 6.33708C11.5126 6.09433 10.4945 6.00828 9.51717 6.2465C1.52351 8.4485 6.05612 13.8208 3.12134 19.2211C3.53891 20.107 8.03981 25.2755 14.5525 23.8887C14.5525 23.8887 12.3251 18.5364 17.3514 15.9675C21.4284 13.876 24.374 10.0065 18.3641 8.36969Z" fill="black"/>
<path d="M19.3474 11.8889C19.3479 11.9847 19.32 12.0786 19.2672 12.1586C19.2144 12.2385 19.1391 12.3011 19.0507 12.3382C18.9624 12.3754 18.865 12.3856 18.7709 12.3674C18.6768 12.3492 18.5902 12.3036 18.522 12.2362C18.4539 12.1688 18.4072 12.0827 18.388 11.9888C18.3688 11.8949 18.3778 11.7974 18.414 11.7086C18.4502 11.6199 18.5119 11.5439 18.5913 11.4902C18.6707 11.4365 18.7642 11.4075 18.86 11.407C18.9885 11.4065 19.1119 11.4569 19.2033 11.5473C19.2946 11.6376 19.3464 11.7604 19.3474 11.8889Z" fill="white"/>
<path d="M12.5337 6.33366C13.1161 6.37533 15.2221 7.0583 15.7656 7.43149C15.3127 6.11808 13.7882 5.94326 12.5337 6.33366Z" fill="#191A19"/>
<path d="M13.0911 9.65452C13.0913 10.0967 12.9604 10.529 12.7148 10.8968C12.4693 11.2645 12.1202 11.5512 11.7117 11.7205C11.3033 11.8898 10.8538 11.9342 10.4201 11.8481C9.98635 11.7619 9.58793 11.5491 9.2752 11.2365C8.96247 10.9239 8.74947 10.5256 8.66314 10.0919C8.57681 9.65822 8.62103 9.20869 8.7902 8.80015C8.95937 8.39161 9.2459 8.04242 9.61355 7.79674C9.9812 7.55106 10.4134 7.41992 10.8556 7.41992C11.1492 7.4198 11.4398 7.47752 11.711 7.58976C11.9823 7.70201 12.2287 7.86659 12.4363 8.0741C12.6439 8.28162 12.8086 8.528 12.9209 8.79917C13.0333 9.07034 13.0911 9.361 13.0911 9.65452Z" fill="white"/>
<path d="M12.4335 9.67427C12.4335 9.98527 12.3413 10.2893 12.1685 10.5479C11.9957 10.8065 11.7501 11.008 11.4628 11.127C11.1755 11.2461 10.8593 11.2772 10.5543 11.2165C10.2492 11.1558 9.96905 11.0061 9.74914 10.7862C9.52923 10.5663 9.37946 10.2861 9.31879 9.98104C9.25812 9.67601 9.28926 9.35984 9.40827 9.07251C9.52729 8.78518 9.72883 8.5396 9.98742 8.36681C10.246 8.19403 10.55 8.10181 10.861 8.10181C11.2781 8.10181 11.678 8.26748 11.9729 8.56237C12.2678 8.85726 12.4335 9.25723 12.4335 9.67427Z" fill="black"/>
<path d="M21.1704 12.8649C19.3588 14.1411 17.299 15.1094 14.3769 15.1094C13.0091 15.1094 12.732 13.6602 11.828 14.3685C11.3615 14.7362 9.71656 15.5587 8.4113 15.4962C7.10605 15.4337 4.99011 14.6683 4.40043 11.8821C4.16674 14.6683 4.04717 16.7208 3.00098 19.0732C5.08431 22.4093 10.0517 24.9826 14.5608 23.8739C14.0762 20.4908 17.0327 17.1774 18.6984 15.4817C19.3325 14.8395 20.5372 13.7915 21.1704 12.8631V12.8649Z" fill="black"/>
<path d="M21.0818 12.9563C20.5193 13.469 19.8499 13.8485 19.1688 14.1837C18.4793 14.511 17.7606 14.7727 17.022 14.9654C16.2829 15.1565 15.5121 15.3005 14.7313 15.2299C13.9505 15.1592 13.1525 14.8938 12.6353 14.3087L12.6597 14.2806C13.2938 14.6918 14.0257 14.8367 14.7539 14.8576C15.4921 14.88 16.2304 14.8193 16.955 14.6764C17.6869 14.5232 18.4029 14.3018 19.0936 14.0152C19.7847 13.7299 20.4686 13.3992 21.0574 12.9282L21.0818 12.9563Z" fill="#58595B"/>
</svg>