<svg xmlns:xlink="http://www.w3.org/1999/xlink" xmlns="http://www.w3.org/2000/svg" width="14" height="14" viewBox="0 0 14 14" fill="none">
<path fill-rule="evenodd" clip-rule="evenodd" d="M1.8 6.6999V12.0999H12.2V6.6999H1.8ZM1 4.8999C0.447715 4.8999 0 5.34762 0 5.8999V12.8999C0 13.4522 0.447716 13.8999 1 13.8999H13C13.5523 13.8999 14 13.4522 14 12.8999V5.8999C14 5.34762 13.5523 4.8999 13 4.8999H1Z" fill="black"/>
<path fill-rule="evenodd" clip-rule="evenodd" d="M2.59961 2.1C2.59961 0.940202 3.53981 0 4.69961 0H9.29961C10.4594 0 11.3996 0.940202 11.3996 2.1V5.9H9.59961V2.1C9.59961 1.93431 9.46529 1.8 9.29961 1.8H4.69961C4.53392 1.8 4.39961 1.93431 4.39961 2.1V5.9H2.59961V2.1Z" fill="black"/>
<path fill-rule="evenodd" clip-rule="evenodd" d="M7.89961 8.5V10.5C7.25 10.5 6.5 10.5 6.09961 10.5V8.5C6.8125 8.50017 7.26562 8.50001 7.89961 8.5Z" fill="black"/>
</svg>