<svg xmlns:xlink="http://www.w3.org/1999/xlink" xmlns="http://www.w3.org/2000/svg" width="12" height="12" viewBox="0 0 12 12" fill="none">
<path fill-rule="evenodd" clip-rule="evenodd" d="M0 3.35C0 2.60442 0.604416 2 1.35 2H6.15C6.89559 2 7.5 2.60442 7.5 3.35V10.15C7.5 10.8956 6.89558 11.5 6.15 11.5H1.35C0.604415 11.5 0 10.8956 0 10.15V3.35ZM1.5 3.5V10H6V3.5H1.5Z" fill="black"/>
<path fill-rule="evenodd" clip-rule="evenodd" d="M4 1.35C4 0.604416 4.60442 0 5.35 0H10.15C10.8956 0 11.5 0.604416 11.5 1.35V8.15C11.5 8.89558 10.8956 9.5 10.15 9.5H6.75V8H10V1.5H5.5V2.75H4V1.35Z" fill="black"/>
</svg>